HIERARCHY
ROOT Hips
{
	OFFSET 0.000000 121.760803 0.000000
	CHANNELS 6 Xposition Yposition Zposition Xrotation Yrotation Zrotation 
	JOINT Spine
	{
		OFFSET 0.072000 7.257294 -0.789700
		CHANNELS 3 Xrotation Yrotation Zrotation
		JOINT Spine1
		{
			OFFSET 0.000000 12.508769 -0.658067
			CHANNELS 3 Xrotation Yrotation Zrotation
			JOINT Spine1_split
			{
				OFFSET 0.000000 12.508769 -0.658067
				CHANNELS 3 Xrotation Yrotation Zrotation
				JOINT Spine2
				{
					OFFSET 0.000000 12.508769 -0.658067
					CHANNELS 3 Xrotation Yrotation Zrotation
					JOINT Neck
					{
						OFFSET 0.000000 14.033295 7.520400
						CHANNELS 3 Xrotation Yrotation Zrotation
						JOINT Head
						{
							OFFSET 0.000000 8.198502 5.703100
							CHANNELS 3 Xrotation Yrotation Zrotation
							JOINT HeadTop_End
							{
								OFFSET 0.000000 17.760803 13.332701
								CHANNELS 3 Xrotation Yrotation Zrotation
								End Site
								{
									OFFSET 0.000000 0.000000 0.000000
								}
							}
						}
					}
					JOINT LeftShoulder
					{
						OFFSET 6.292450 5.785301 -0.669000
						CHANNELS 3 Xrotation Yrotation Zrotation
						JOINT LeftShoulder_split
						{
							OFFSET 6.292450 5.785301 -0.669000
							CHANNELS 3 Xrotation Yrotation Zrotation
							JOINT LeftArm
							{
								OFFSET 13.907140 -6.093903 1.965100
								CHANNELS 3 Xrotation Yrotation Zrotation
								JOINT LeftForeArm
								{
									OFFSET 34.140198 0.000000 0.000000
									CHANNELS 3 Xrotation Yrotation Zrotation
									JOINT LeftHand
									{
										OFFSET 40.960209 0.000000 0.000000
										CHANNELS 3 Xrotation Yrotation Zrotation
										JOINT LeftHandThumb1
										{
											OFFSET 10.006996 -7.170425 9.573125
											CHANNELS 3 Xrotation Yrotation Zrotation
											JOINT LeftHandThumb2
											{
												OFFSET 1.835007 -1.059448 1.059443
												CHANNELS 3 Xrotation Yrotation Zrotation
												JOINT LeftHandThumb3
												{
													OFFSET 2.112267 -1.219513 1.219518
													CHANNELS 3 Xrotation Yrotation Zrotation
													JOINT LeftHandThumb4
													{
														OFFSET 4.843811 -2.796570 2.796576
														CHANNELS 3 Xrotation Yrotation Zrotation
														End Site
														{
															OFFSET 0.000000 0.000000 0.000000
														}
													}
												}
											}
										}
										JOINT LeftHandIndex1
										{
											OFFSET 18.389847 -0.922348 4.596882
											CHANNELS 3 Xrotation Yrotation Zrotation
											JOINT LeftHandIndex2
											{
												OFFSET 4.711273 0.000000 0.000000
												CHANNELS 3 Xrotation Yrotation Zrotation
												JOINT LeftHandIndex3
												{
													OFFSET 2.886131 0.000000 0.000000
													CHANNELS 3 Xrotation Yrotation Zrotation
													JOINT LeftHandIndex4
													{
														OFFSET 6.145912 0.000000 0.000000
														CHANNELS 3 Xrotation Yrotation Zrotation
														End Site
														{
															OFFSET 0.000000 0.000000 0.000000
														}
													}
												}
											}
										}
										JOINT LeftHandMiddle1
										{
											OFFSET 18.013008 0.000000 0.000000
											CHANNELS 3 Xrotation Yrotation Zrotation
											JOINT LeftHandMiddle2
											{
												OFFSET 4.946693 0.000000 0.000000
												CHANNELS 3 Xrotation Yrotation Zrotation
												JOINT LeftHandMiddle3
												{
													OFFSET 3.342232 0.000000 0.000000
													CHANNELS 3 Xrotation Yrotation Zrotation
													JOINT LeftHandMiddle4
													{
														OFFSET 4.461754 0.000000 0.000000
														CHANNELS 3 Xrotation Yrotation Zrotation
														End Site
														{
															OFFSET 0.000000 0.000000 0.000000
														}
													}
												}
											}
										}
										JOINT LeftHandRing1
										{
											OFFSET 15.849892 -0.102921 -4.126150
											CHANNELS 3 Xrotation Yrotation Zrotation
											JOINT LeftHandRing2
											{
												OFFSET 3.527054 0.000000 0.000000
												CHANNELS 3 Xrotation Yrotation Zrotation
												JOINT LeftHandRing3
												{
													OFFSET 2.961098 0.000000 0.000000
													CHANNELS 3 Xrotation Yrotation Zrotation
													JOINT LeftHandRing4
													{
														OFFSET 4.927200 0.000000 0.000000
														CHANNELS 3 Xrotation Yrotation Zrotation
														End Site
														{
															OFFSET 0.000000 0.000000 0.000000
														}
													}
												}
											}
										}
										JOINT LeftHandPinky1
										{
											OFFSET 12.791824 -0.832031 -6.799156
											CHANNELS 3 Xrotation Yrotation Zrotation
											JOINT LeftHandPinky2
											{
												OFFSET 3.327133 0.000000 0.000000
												CHANNELS 3 Xrotation Yrotation Zrotation
												JOINT LeftHandPinky3
												{
													OFFSET 3.014900 0.000000 0.000000
													CHANNELS 3 Xrotation Yrotation Zrotation
													JOINT LeftHandPinky4
													{
														OFFSET 5.847786 0.000000 0.000000
														CHANNELS 3 Xrotation Yrotation Zrotation
														End Site
														{
															OFFSET 0.000000 0.000000 0.000000
														}
													}
												}
											}
										}
									}
								}
							}
						}
					}
					JOINT RightShoulder
					{
						OFFSET -6.292450 5.785301 -0.669000
						CHANNELS 3 Xrotation Yrotation Zrotation
						JOINT RightShoulder_split
						{
							OFFSET -6.292450 5.785301 -0.669000
							CHANNELS 3 Xrotation Yrotation Zrotation
							JOINT RightArm
							{
								OFFSET -13.907140 -6.093903 1.965100
								CHANNELS 3 Xrotation Yrotation Zrotation
								JOINT RightForeArm
								{
									OFFSET -34.140198 0.000000 0.000000
									CHANNELS 3 Xrotation Yrotation Zrotation
									JOINT RightHand
									{
										OFFSET -40.960209 0.000000 0.000000
										CHANNELS 3 Xrotation Yrotation Zrotation
										JOINT RightHandThumb1
										{
											OFFSET -10.007050 -7.170456 9.573117
											CHANNELS 3 Xrotation Yrotation Zrotation
											JOINT RightHandThumb2
											{
												OFFSET -1.835007 -1.059448 1.059443
												CHANNELS 3 Xrotation Yrotation Zrotation
												JOINT RightHandThumb3
												{
													OFFSET -2.112267 -1.219513 1.219518
													CHANNELS 3 Xrotation Yrotation Zrotation
													JOINT RightHandThumb4
													{
														OFFSET -4.843834 -2.796585 2.796590
														CHANNELS 3 Xrotation Yrotation Zrotation
														End Site
														{
															OFFSET 0.000000 0.000000 0.000000
														}
													}
												}
											}
										}
										JOINT RightHandIndex1
										{
											OFFSET -18.389870 -0.922424 4.596786
											CHANNELS 3 Xrotation Yrotation Zrotation
											JOINT RightHandIndex2
											{
												OFFSET -4.711273 0.000000 0.000000
												CHANNELS 3 Xrotation Yrotation Zrotation
												JOINT RightHandIndex3
												{
													OFFSET -2.886131 0.000000 0.000000
													CHANNELS 3 Xrotation Yrotation Zrotation
													JOINT RightHandIndex4
													{
														OFFSET -6.145920 0.000000 0.000000
														CHANNELS 3 Xrotation Yrotation Zrotation
														End Site
														{
															OFFSET 0.000000 0.000000 0.000000
														}
													}
												}
											}
										}
										JOINT RightHandMiddle1
										{
											OFFSET -18.013008 0.000000 0.000000
											CHANNELS 3 Xrotation Yrotation Zrotation
											JOINT RightHandMiddle2
											{
												OFFSET -4.946693 0.000000 0.000000
												CHANNELS 3 Xrotation Yrotation Zrotation
												JOINT RightHandMiddle3
												{
													OFFSET -3.342232 0.000000 0.000000
													CHANNELS 3 Xrotation Yrotation Zrotation
													JOINT RightHandMiddle4
													{
														OFFSET -4.461754 0.000000 0.000000
														CHANNELS 3 Xrotation Yrotation Zrotation
														End Site
														{
															OFFSET 0.000000 0.000000 0.000000
														}
													}
												}
											}
										}
										JOINT RightHandRing1
										{
											OFFSET -15.849876 -0.102936 -4.126237
											CHANNELS 3 Xrotation Yrotation Zrotation
											JOINT RightHandRing2
											{
												OFFSET -3.527054 0.000000 0.000000
												CHANNELS 3 Xrotation Yrotation Zrotation
												JOINT RightHandRing3
												{
													OFFSET -2.961098 0.000000 0.000000
													CHANNELS 3 Xrotation Yrotation Zrotation
													JOINT RightHandRing4
													{
														OFFSET -4.927200 0.000000 0.000000
														CHANNELS 3 Xrotation Yrotation Zrotation
														End Site
														{
															OFFSET 0.000000 0.000000 0.000000
														}
													}
												}
											}
										}
										JOINT RightHandPinky1
										{
											OFFSET -12.791786 -0.832077 -6.799222
											CHANNELS 3 Xrotation Yrotation Zrotation
											JOINT RightHandPinky2
											{
												OFFSET -3.327133 0.000000 0.000000
												CHANNELS 3 Xrotation Yrotation Zrotation
												JOINT RightHandPinky3
												{
													OFFSET -3.014900 0.000000 0.000000
													CHANNELS 3 Xrotation Yrotation Zrotation
													JOINT RightHandPinky4
													{
														OFFSET -5.847786 0.000000 0.000000
														CHANNELS 3 Xrotation Yrotation Zrotation
														End Site
														{
															OFFSET 0.000000 0.000000 0.000000
														}
													}
												}
											}
										}
									}
								}
							}
						}
					}
				}
			}
		}
	}
	JOINT LeftUpLeg
	{
		OFFSET 13.026900 -6.336304 -1.092800
		CHANNELS 3 Xrotation Yrotation Zrotation
		JOINT LeftLeg
		{
			OFFSET 0.524474 -46.096886 9.782700
			CHANNELS 3 Xrotation Yrotation Zrotation
			JOINT LeftFoot
			{
				OFFSET -0.524474 -53.427422 -12.948200
				CHANNELS 3 Xrotation Yrotation Zrotation
				JOINT LeftToeBase
				{
					OFFSET 0.192200 -14.009700 16.364100
					CHANNELS 3 Xrotation Yrotation Zrotation
					JOINT LeftToe_End
					{
						OFFSET -1.784700 -0.561700 9.474800
						CHANNELS 3 Xrotation Yrotation Zrotation
						End Site
						{
							OFFSET 0.000000 0.000000 0.000000
						}
					}
				}
			}
		}
	}
	JOINT RightUpLeg
	{
		OFFSET -12.883000 -6.336304 -1.092800
		CHANNELS 3 Xrotation Yrotation Zrotation
		JOINT RightLeg
		{
			OFFSET -0.524587 -46.096825 9.782800
			CHANNELS 3 Xrotation Yrotation Zrotation
			JOINT RightFoot
			{
				OFFSET 0.524587 -53.427383 -12.948300
				CHANNELS 3 Xrotation Yrotation Zrotation
				JOINT RightToeBase
				{
					OFFSET -0.192200 -14.009700 16.364100
					CHANNELS 3 Xrotation Yrotation Zrotation
					JOINT RightToe_End
					{
						OFFSET 1.784700 -0.561700 9.474800
						CHANNELS 3 Xrotation Yrotation Zrotation
						End Site
						{
							OFFSET 0.000000 0.000000 0.000000
						}
					}
				}
			}
		}
	}
}
MOTION
Frames: 4
Frame Time: 0.016667
21.537079 107.178215 -28.506563 155.353882 -33.514222 161.251805 36.408894 2.521282 8.645315 -9.351836 -3.570434 1.181059 0.000000 0.000000 0.000000 -9.435597 -2.352111 2.017857 -12.226138 -7.455023 -5.693957 -19.356838 -12.917810 9.381451 0.000000 0.000000 -0.000000 5.744846 -10.522763 24.025846 0.000000 0.000000 0.000000 -67.510601 -3.722620 -45.267991 1.348481 -68.597632 4.202997 -49.957298 9.172181 6.229500 17.551619 -5.699230 -12.932297 10.850493 26.127770 8.644835 20.926977 51.115879 0.218760 0.000000 0.000000 -0.000002 13.980884 1.201520 -55.004353 0.370820 1.161733 -65.441893 1.983967 2.148000 -57.665115 0.000002 -0.000000 -0.000000 7.504729 1.174448 -63.778483 1.807804 1.475684 -64.567971 0.130378 -0.912245 -43.272510 0.000001 0.000000 0.000000 8.574336 2.179090 -75.148979 -0.207658 1.009265 -57.855056 0.443092 1.742187 -53.581270 -0.000000 -0.000000 -0.000000 10.030093 13.637063 -84.750237 0.877120 0.062279 -64.595496 1.141277 1.253139 -55.016313 0.000001 -0.000000 0.000000 8.424594 8.375889 -5.507276 0.000000 0.000000 0.000000 -1.238762 1.267724 68.329171 13.833044 26.209123 -4.662799 1.309570 4.198886 -0.028692 18.220805 -5.165863 -16.100675 -6.245516 -30.512504 3.865914 -4.832664 -8.294481 3.873379 0.000001 -0.000003 -0.000000 8.324403 -2.978355 13.360773 -2.420666 -1.364227 30.156494 -1.107033 -5.091585 19.201806 0.000002 0.000002 -0.000002 -0.657855 -4.404967 22.423721 0.269029 -5.521314 37.097250 -0.665469 -0.398265 22.627817 0.000000 -0.000001 -0.000001 -4.177291 -8.849785 22.910736 4.057590 -1.936002 44.316665 2.658937 -1.335695 28.532022 -0.000001 0.000001 -0.000001 -16.086303 -11.774064 19.303189 10.677809 -2.614217 41.806314 6.310770 -3.185085 20.926354 -0.000003 -0.000002 0.000001 -23.634898 33.154817 26.793321 26.717612 21.809156 -0.961849 -9.510839 12.685808 -29.030360 -0.292622 -0.111927 -0.580092 0.000000 -0.000001 -0.000000 -57.909465 18.854356 11.533195 33.080467 -0.654040 2.539248 -0.701894 -6.000241 4.772930 -0.000200 0.062405 0.008410 -0.000000 0.000001 0.000000 
21.461327 107.365967 -28.610771 155.507876 -33.710119 161.461970 36.369617 2.533546 8.662305 -9.302411 -3.573412 1.240612 0.000000 0.000000 0.000000 -9.386067 -2.346660 2.077846 -12.663938 -9.245402 -5.425665 -18.143119 -14.473888 9.482514 0.000000 -0.000000 0.000000 5.600717 -10.392683 23.545701 0.000000 0.000000 0.000000 -67.435018 -3.677403 -45.248149 1.632191 -68.445264 4.470451 -49.937115 9.068379 6.209526 17.551619 -5.699232 -12.932297 10.850492 26.127774 8.644836 20.926976 51.115882 0.218763 0.000001 -0.000000 -0.000002 13.980883 1.201519 -55.004350 0.370823 1.161734 -65.441893 1.983967 2.148002 -57.665115 -0.000002 0.000001 -0.000004 7.504730 1.174448 -63.778483 1.807806 1.475686 -64.567971 0.130377 -0.912243 -43.272517 -0.000000 -0.000000 0.000001 8.574338 2.179090 -75.148972 -0.207657 1.009265 -57.855049 0.443091 1.742186 -53.581263 -0.000000 0.000000 -0.000001 10.030093 13.637063 -84.750230 0.877119 0.062276 -64.595496 1.141276 1.253137 -55.016306 0.000000 -0.000001 -0.000000 8.387677 8.109945 -5.631588 0.000000 0.000000 0.000000 -1.325111 1.460315 68.468316 13.559637 26.271829 -4.380974 1.637688 4.236959 0.170621 18.207633 -5.153451 -16.107063 -6.281825 -30.420730 3.877077 -4.766657 -8.440346 3.821744 -0.000000 -0.000001 -0.000002 8.217436 -2.911573 13.348503 -2.416333 -1.394017 30.239894 -1.102664 -5.099080 19.228692 0.000004 -0.000001 0.000002 -0.797131 -4.366865 22.488061 0.278305 -5.517113 37.121699 -0.665335 -0.403040 22.578715 -0.000001 0.000002 0.000000 -4.248844 -8.728381 23.054470 4.015913 -2.019641 44.438901 2.657850 -1.342479 28.444254 0.000000 -0.000002 -0.000001 -16.404439 -11.839654 19.617953 10.678531 -2.615762 41.769776 6.311630 -3.184174 20.897483 -0.000001 0.000002 0.000001 -22.898938 33.175909 26.297526 26.065281 21.903303 -0.910134 -9.274025 12.671586 -28.964992 -0.292604 -0.109539 -0.581001 -0.000000 0.000000 -0.000000 -57.373896 18.751571 11.237154 32.864224 -0.610126 2.531744 -0.734818 -5.887716 4.684596 -0.000197 0.062557 0.008454 0.000000 -0.000001 -0.000000 
21.398451 107.534256 -28.689926 155.636584 -33.897969 161.682066 36.298385 2.537735 8.680330 -9.262706 -3.564026 1.268315 0.000000 0.000000 0.000000 -9.346577 -2.337917 2.102956 -12.950596 -10.349950 -5.301793 -17.398333 -15.412054 9.443616 0.000000 0.000000 -0.000000 5.455872 -10.276587 23.062289 0.000000 0.000000 0.000000 -67.354517 -3.637389 -45.228075 1.900016 -68.291701 4.723976 -49.919674 8.973213 6.196767 17.551617 -5.699231 -12.932296 10.850491 26.127769 8.644833 20.926976 51.115879 0.218761 0.000000 0.000001 -0.000001 13.980884 1.201519 -55.004347 0.370822 1.161733 -65.441893 1.983967 2.148002 -57.665122 0.000000 0.000000 -0.000002 7.504732 1.174448 -63.778483 1.807806 1.475687 -64.567964 0.130377 -0.912243 -43.272517 -0.000001 0.000001 -0.000001 8.574339 2.179089 -75.148972 -0.207657 1.009264 -57.855056 0.443092 1.742187 -53.581270 0.000001 0.000000 -0.000000 10.030093 13.637063 -84.750230 0.877121 0.062278 -64.595503 1.141274 1.253139 -55.016306 -0.000000 0.000000 -0.000000 8.353435 7.968173 -5.710314 0.000000 0.000000 0.000000 -1.302526 1.649692 68.639255 13.413279 26.330432 -4.243871 1.725138 4.280989 0.377629 18.194499 -5.141163 -16.113451 -6.316195 -30.331603 3.889158 -4.703226 -8.582005 3.771495 0.000000 -0.000000 0.000001 8.114769 -2.847551 13.337026 -2.411861 -1.422819 30.319886 -1.098517 -5.106223 19.254513 -0.000002 -0.000000 0.000002 -0.930832 -4.330636 22.550028 0.287452 -5.512984 37.145157 -0.665217 -0.407889 22.531560 0.000003 -0.000001 -0.000001 -4.318083 -8.612285 23.192553 3.976684 -2.100075 44.556213 2.656945 -1.349009 28.360006 -0.000003 -0.000002 -0.000001 -16.709564 -11.906603 19.920025 10.679294 -2.617336 41.733166 6.312518 -3.183259 20.868630 0.000001 -0.000001 0.000000 -22.211811 33.181257 25.789531 25.469045 21.990486 -0.862553 -9.057644 12.669185 -28.892913 -0.292636 -0.107051 -0.581959 -0.000000 0.000001 -0.000000 -56.893188 18.680520 10.817494 32.729293 -1.644227 2.444103 -0.742780 -4.649411 4.810847 -0.000190 0.062685 0.008504 -0.000000 0.000001 0.000000 
21.341227 107.692451 -28.758287 155.754022 -34.082671 161.908009 36.212973 2.538194 8.697286 -9.227452 -3.548999 1.281484 0.000000 0.000000 0.000000 -9.311683 -2.327706 2.112165 -13.170378 -11.140842 -5.245223 -16.873786 -16.069915 9.340676 0.000000 0.000000 -0.000000 5.312895 -10.162598 22.584275 0.000000 0.000000 0.000000 -67.274017 -3.603498 -45.213851 2.101654 -68.140412 4.908465 -49.904374 8.881477 6.194703 17.551619 -5.699232 -12.932301 10.850490 26.127772 8.644834 20.926977 51.115879 0.218760 0.000001 0.000000 -0.000003 13.980885 1.201520 -55.004347 0.370822 1.161732 -65.441893 1.983967 2.148000 -57.665115 -0.000000 -0.000000 -0.000002 7.504730 1.174448 -63.778483 1.807805 1.475686 -64.567964 0.130378 -0.912243 -43.272517 -0.000000 -0.000001 -0.000000 8.574339 2.179090 -75.148972 -0.207658 1.009265 -57.855056 0.443092 1.742185 -53.581273 0.000000 0.000001 -0.000002 10.030092 13.637063 -84.750230 0.877121 0.062278 -64.595503 1.141273 1.253137 -55.016303 0.000001 -0.000002 -0.000000 8.320663 7.882609 -5.768245 0.000000 0.000000 0.000000 -1.231531 1.837852 68.823985 13.324732 26.387464 -4.172551 1.703411 4.326795 0.587464 18.181269 -5.128785 -16.119871 -6.348283 -30.245539 3.902237 -4.642597 -8.719085 3.722712 0.000000 -0.000003 -0.000002 8.016900 -2.786405 13.326234 -2.407368 -1.450642 30.396217 -1.094614 -5.113040 19.279090 -0.000003 -0.000001 0.000001 -1.058381 -4.296386 22.609343 0.296485 -5.508838 37.167591 -0.665108 -0.412764 22.486612 0.000002 0.000000 -0.000001 -4.384638 -8.501918 23.324307 3.940074 -2.176942 44.668105 2.656229 -1.355355 28.279650 -0.000001 0.000001 -0.000000 -17.000373 -11.974057 20.208001 10.680040 -2.618834 41.696553 6.313386 -3.182306 20.839739 0.000000 0.000000 0.000000 -21.546313 33.177275 25.275861 24.898271 22.074121 -0.816906 -8.851300 12.671512 -28.817033 -0.292620 -0.104547 -0.582868 -0.000000 -0.000001 0.000000 -56.440701 18.563112 10.501964 32.555963 -1.449634 2.450508 -0.764722 -4.654635 4.709479 -0.000188 0.062793 0.008537 -0.000000 -0.000001 0.000000 
